<svg viewBox="0 0 22 26" fill="none" xmlns="http://www.w3.org/2000/svg"><circle cx="7" cy="4.5" r="4" fill="#038B2A"/><g clip-path="url(#a)"><path d="M18.79 12.78a8.35 8.35 0 0 0-4.2-2.34c-1.18-.3-2.38-.45-3.59-.47v-3.24a2.08 2.08 0 0 0-2.14-2 2.08 2.08 0 0 0-2.14 2v6.1l-.98-.96a2.3 2.3 0 0 0-3.9 1.61c-.02.58.2 1.14.6 1.56l2.85 3.38a7.05 7.05 0 0 0 2.1 4v1.17a.65.65 0 0 0 .6.66h8.51a.65.65 0 0 0 .61-.66v-1.65a7.83 7.83 0 0 0 1.83-5.11v-3.67a.61.61 0 0 0-.15-.38Zm-1.07 4.08a6.55 6.55 0 0 1-1.59 4.44.68.68 0 0 0-.24.44v1.32h-7.25v-.9a.61.61 0 0 0-.27-.52 5.59 5.59 0 0 1-1.85-3.51.61.61 0 0 0-.13-.36l-3.01-3.56a1.04 1.04 0 0 1 0-1.48 1.08 1.08 0 0 1 1.5 0l1.84 1.84v1.92l1.22-.61v-9.15a.87.87 0 0 1 .92-.79.87.87 0 0 1 .92.79v7.2l1.22.27v-3c.51 0 1.02.04 1.53.1v3.2l.98.21v-3.27c.25.05.5.1.77.18.32.08.63.18.94.3v3.14l.97.22v-2.92c.56.28 1.07.64 1.53 1.06v3.44Z" fill="#383935"/></g><defs><clipPath id="a"><path fill="#fff" transform="translate(0 3.5)" d="M0 0h22v22h-22z"/></clipPath></defs></svg>